<?xml version="1.0" encoding="UTF-8" standalone="no"?>
<!-- Created with Inkscape (http://www.inkscape.org/) -->

<svg
   xmlns:dc="http://purl.org/dc/elements/1.1/"
   xmlns:cc="http://creativecommons.org/ns#"
   xmlns:rdf="http://www.w3.org/1999/02/22-rdf-syntax-ns#"
   xmlns:svg="http://www.w3.org/2000/svg"
   xmlns="http://www.w3.org/2000/svg"
   xmlns:sodipodi="http://sodipodi.sourceforge.net/DTD/sodipodi-0.dtd"
   xmlns:inkscape="http://www.inkscape.org/namespaces/inkscape"
   id="svg3155"
   version="1.1"
   inkscape:version="0.48.4 r9939"
   width="890"
   height="889"
   sodipodi:docname="moonstar.png">
  <metadata
     id="metadata3161">
    <rdf:RDF>
      <cc:Work
         rdf:about="">
        <dc:format>image/svg+xml</dc:format>
        <dc:type
           rdf:resource="http://purl.org/dc/dcmitype/StillImage" />
        <dc:title></dc:title>
      </cc:Work>
    </rdf:RDF>
  </metadata>
  <defs
     id="defs3159" />
  <sodipodi:namedview
     pagecolor="#ffffff"
     bordercolor="#666666"
     borderopacity="1"
     objecttolerance="10"
     gridtolerance="10"
     guidetolerance="10"
     inkscape:pageopacity="0"
     inkscape:pageshadow="2"
     inkscape:window-width="952"
     inkscape:window-height="675"
     id="namedview3157"
     showgrid="false"
     inkscape:zoom="0.96166522"
     inkscape:cx="445"
     inkscape:cy="444.5"
     inkscape:window-x="53"
     inkscape:window-y="24"
     inkscape:window-maximized="0"
     inkscape:current-layer="svg3155" />
  <g
     id="g3212">
    <path
       style="fill:#fefefe"
       d="M 0,444.5 0,0 445,0 890,0 890,444.5 890,889 445,889 0,889 0,444.5 z"
       id="path3228"
       inkscape:connector-curvature="0" />
    <path
       style="fill:#d0d0d0"
       d="M 414.5,888.35983 C 357.48782,883.74939 300.34976,867.38209 249.5,841.09529 205.21404,818.20164 169.66314,791.7753 133.48882,754.85975 115.54471,736.54795 96.987329,714.38377 93.890064,707.5646 87.60109,693.71832 97.847042,678.58227 113.5,678.59541 c 5.04871,0.004 7.27608,0.65661 14.04856,4.11469 36.61366,18.69522 83.30626,32.19622 129.45144,37.43044 17.46558,1.98111 64.90767,1.70123 83.5,-0.4926 90.3926,-10.666 170.07297,-49.16845 234.05974,-113.10027 C 638.55877,542.60358 680.52688,458.26555 694.01172,366.5 700.20911,324.32623 700.58434,278.00246 695.0628,236.74071 686.20878,170.57581 662.03595,107.00752 625.19256,53 620.5025,46.125 614.78364,37.75388 612.48399,34.397512 607.99251,27.84217 606.59977,22.57952 607.87977,17 610.35738,6.2002018 618.05769,0 628.99285,0 c 3.81933,0 6.82544,0.88802623 12.28211,3.6282206 12.14874,6.1007733 22.52985,12.2361034 38.72546,22.8871034 56.53626,37.180928 103.83971,86.861086 140.52733,147.587996 10.07604,16.67828 28.14632,53.01525 35.00809,70.39668 36.9852,93.68657 43.95333,195.85861 19.9826,293 -17.22637,69.80986 -49.66718,133.94321 -96.3613,190.5 -11.07163,13.41015 -44.65031,47.2774 -57.65714,58.15263 -57.86003,48.37771 -123.80311,80.53957 -194.5,94.86183 -28.17934,5.70876 -42.64654,7.11715 -76.5,7.44735 -17.05,0.16629 -33.25,0.1204 -36,-0.10198 z M 141.90728,554.67323 c -8.3442,-4.40523 -8.70538,-5.36311 -22.55466,-59.81709 L 106.7267,445.21228 62.613348,428.96888 C 38.351007,420.03502 16.366261,411.83346 13.758357,410.74319 -0.32068461,404.85731 -4.4220937,387.35957 5.7805765,376.70779 7.2515409,375.17208 27.702669,361.74403 51.227529,346.8677 L 94,319.81981 94.04664,312.1599 c 0.02565,-4.21294 0.852779,-27.32391 1.838057,-51.35771 1.753492,-42.77278 1.843628,-43.79926 4.258003,-48.49085 5.0758,-9.86323 16.99156,-14.07425 26.96469,-9.52929 2.41594,1.10099 18.65076,13.90036 36.07738,28.44305 17.42663,14.54269 34.76922,28.96473 38.53909,32.04898 l 6.8543,5.60772 49.46092,-13.93719 c 27.20351,-7.66545 50.41684,-13.93885 51.58519,-13.9409 1.16835,-0.002 4.09335,0.69058 6.5,1.53916 9.95895,3.51149 16.34448,14.56713 13.93668,24.12938 -0.62269,2.4729 -9.21614,24.71045 -19.09655,49.41678 C 301.08398,340.79536 293,361.4538 293,361.99667 c 0,0.54288 12.53845,19.80996 27.86322,42.81574 15.32478,23.00578 28.43012,43.54639 29.12299,45.64581 3.19612,9.68433 -1.44094,20.0186 -11.1646,24.88174 l -5.67838,2.83995 -47.82162,-3.09597 c -26.30188,-1.70278 -49.60129,-3.19547 -51.77646,-3.31708 l -3.95485,-0.22112 -26.37476,33.47713 c -37.17241,47.18243 -37.75104,47.86295 -42.54918,50.04151 -5.83906,2.65117 -13.29073,2.4958 -18.75908,-0.39115 z"
       id="path3226"
       inkscape:connector-curvature="0" />
    <path
       style="fill:#afafaf"
       d="m 418.5,888.40379 c -2.2,-0.21525 -9.175,-0.88455 -15.5,-1.48732 -95.01645,-9.05507 -188.33376,-53.2003 -260.7803,-123.36626 -23.38888,-22.65261 -47.201342,-51.0546 -49.281549,-58.7799 -3.148987,-11.69444 5.280803,-24.37638 17.412459,-26.19564 5.13325,-0.76977 10.52778,0.84653 21.92484,6.56911 34.02882,17.08622 77.76462,29.47867 123.72455,35.0571 14.15853,1.71851 65.86563,1.70096 81.5,-0.0277 89.12147,-9.85375 168.08141,-46.80085 232.35849,-108.72567 C 640.4467,543.44255 684.32269,452.56892 696.5745,349 700.04195,319.68845 699.52512,269.91841 695.42183,238 686.65695,169.82023 659.98222,101.38413 620.5,45.782244 608.84419,29.367643 608.00344,27.694337 608.00155,20.907284 c -0.003,-11.5784194 7.83079,-19.98344586 19.3069,-20.71418977 6.0162,-0.3830823 6.7027,-0.17073622 17.13389,5.29976187 C 690.73748,29.771738 737.21714,67.052664 772.86558,108.5 c 61.06415,70.9974 100.80293,159.97986 112.54097,252 5.07696,39.80073 5.07696,84.19927 0,124 -10.22282,80.14159 -42.60308,159.49149 -91.81561,225 -25.27043,33.63835 -59.40028,67.59919 -94.31308,93.84605 C 638.95727,848.69406 567.76752,877.25995 492,886.5192 c -12.74784,1.55787 -63.53108,2.85998 -73.5,1.88459 z M 143.5,555.0884 c -9.95659,-4.92525 -9.85081,-4.65985 -23.94967,-60.08939 -6.90097,-27.13107 -12.73234,-49.51435 -12.95861,-49.74062 -0.22627,-0.22627 -21.714467,-8.27483 -47.751557,-17.8857 C 27.559732,415.8264 10.336534,408.96464 8.0703856,407.14591 -1.3884509,399.55459 -2.3884369,385.57861 5.9174589,377.05622 7.8878565,375.03447 27.95,361.76479 50.5,347.56805 73.05,333.37131 92.020891,321.24824 92.657535,320.6279 93.448692,319.857 94.3315,305.41504 95.446679,275 c 2.022377,-55.1577 2.408926,-59.31358 6.025171,-64.77809 4.96807,-7.50727 15.87874,-11.08727 24.56349,-8.05975 1.83359,0.6392 20.68824,15.62004 41.89922,33.29078 21.21099,17.67073 39.08726,32.44917 39.72504,32.84098 0.63777,0.3918 22.68777,-5.3977 49,-12.86556 31.04164,-8.81015 49.59955,-13.60183 52.85021,-13.646 11.41274,-0.15508 20.81647,9.22596 20.74429,20.69424 -0.0261,4.14242 -3.35549,13.353 -18.98463,52.51952 l -18.95301,47.49612 28.03197,42.00388 C 335.76602,427.59825 348.95006,448.075 349.64631,450 353.6249,461.00009 346.64714,473.85545 335,476.98344 c -2.44253,0.65597 -18.90887,-0.0772 -54.5,-2.42665 -28.05,-1.85164 -51.04722,-3.2969 -51.10493,-3.2117 -0.0577,0.0852 -14.34142,18.22837 -31.74158,40.31815 -20.66959,26.24037 -32.91935,40.95598 -35.33681,42.45006 -5.13394,3.17295 -13.4975,3.60636 -18.81668,0.9751 z"
       id="path3224"
       inkscape:connector-curvature="0" />
    <path
       style="fill:#8e8e8e"
       d="M 413.5,887.94807 C 321.93157,880.3692 233.92471,843.40891 163.50434,782.95726 132.46177,756.30908 95.89723,715.59166 93.125813,704.58537 c -2.796141,-11.10448 3.71429,-22.28049 14.628407,-25.11157 6.62424,-1.71831 10.63702,-0.78982 23.74578,5.49437 37.04885,17.76078 76.16235,29.16359 119,34.69224 19.9599,2.57603 71.89576,2.59188 92.5,0.0282 77.29512,-9.61737 144.5246,-38.67952 206,-89.05026 13.25338,-10.85934 43.44652,-41.73528 55.38585,-56.63837 51.62739,-64.44309 83.27582,-142.38008 92.78863,-228.5 2.07319,-18.7687 1.76367,-81.17257 -0.49104,-99 C 687.34371,172.653 665.03976,111.83022 626.16751,54.203238 606.65033,25.269582 607.81261,27.490959 608.20747,19.877727 c 0.44922,-8.66113 3.77746,-13.7447692 11.45925,-17.5031155 9.75516,-4.7727579 16.63959,-2.49623892 45.91895,15.1843215 C 767.91441,79.350926 845.31808,186.15262 874.99339,306.5 c 10.8987,44.19938 14.63591,78.7139 13.6917,126.44801 -0.55521,28.06816 -1.64707,41.60223 -5.17451,64.14011 C 864.18594,620.55893 795.79501,732.75236 694.90866,806.48434 677.01714,819.56021 656.69438,831.91852 635,842.9149 c -46.50849,23.57409 -91.93717,37.29654 -144.5,43.6485 -15.49382,1.87235 -61.18134,2.69394 -77,1.38467 z m -270,-332.84393 c -4.83777,-2.23982 -8.88807,-6.38601 -10.84731,-11.10414 -0.79937,-1.925 -6.68362,-24.2 -13.07612,-49.5 -6.39249,-25.3 -11.96352,-46.82865 -12.38006,-47.84145 -0.54883,-1.33446 -13.564687,-6.57656 -47.274314,-19.03962 C 34.337865,418.15994 11.857277,409.51672 9.9653334,408.41176 8.07339,407.30681 5.1772131,404.22205 3.5293848,401.55675 -1.8820247,392.80401 0.24743507,380.65568 8.2407692,374.67885 10.53607,372.96259 92.059996,321.3196 93.653898,320.57217 c 0.08464,-0.0397 1.095296,-23.1447 2.245895,-51.34447 2.245919,-55.04471 2.32409,-55.65403 7.903257,-61.6038 5.39824,-5.75682 13.31035,-7.83115 21.35136,-5.59771 2.53042,0.70284 15.88123,11.19888 43.40701,34.1254 l 39.75259,33.11037 48.59299,-13.66667 c 31.18603,-8.771 50.20499,-13.64602 53.093,-13.60902 8.70098,0.11148 16.39525,5.62125 19.03973,13.63412 2.45898,7.45077 0.8858,12.65719 -18.38452,60.84364 l -18.38155,45.96404 27.9507,41.90833 c 15.37289,23.04959 28.6197,43.76577 29.43735,46.03597 3.72266,10.33587 -2.82598,22.81712 -13.65967,26.03438 -4.01378,1.19197 -10.73347,0.95099 -55.51864,-1.99094 -28.02369,-1.84088 -51.23355,-3.02502 -51.57746,-2.63143 -0.34392,0.39359 -14.73832,18.67009 -31.98755,40.61444 -28.88986,36.75349 -31.75861,40.08341 -36.39031,42.24023 -6.04068,2.81295 -11.62737,2.96554 -17.02808,0.46509 z"
       id="path3222"
       inkscape:connector-curvature="0" />
    <path
       style="fill:#6f6f6f"
       d="M 415.5,887.87174 C 361.28098,884.05923 304.76067,868.43511 255.01845,843.50925 208.02284,819.9597 160.75932,784.6881 126.9193,747.91196 105.82239,724.9846 94.527976,710.30501 93.102139,703.95907 90.226176,691.1591 99.990972,679 113.14641,679 c 4.33173,0 7.54731,1.08834 18.78984,6.35955 43.09922,20.20764 85.50628,31.60125 132.98025,35.7281 17.08404,1.4851 64.36388,0.61087 79.85871,-1.47663 58.54505,-7.88732 106.86291,-24.7261 155.83725,-54.3093 C 555.59021,632.09214 604.56476,582.25594 638.48843,525 690.27303,437.5986 710.01895,331.65178 694.0284,227 684.12672,162.19747 658.10131,98.072766 619.95963,44.5 614.86911,37.35 610.09571,30.051953 609.35207,28.282119 603.65703,14.728136 615.93213,-1.3948995 630.68072,0.26748063 640.70994,1.3979187 680.28309,25.335034 708.5,47.339013 729.50927,63.722366 758.82159,91.972685 776.11056,112.5 c 52.62246,62.47901 89.80184,140.92627 104.74098,221 5.36045,28.73194 7.11678,46.33087 7.83669,78.52583 0.82853,37.05242 -1.77618,69.14057 -8.25828,101.73614 C 855.56469,638.79821 783.65547,747.47014 680,816.65931 601.00777,869.38596 508.14954,894.38657 415.5,887.87174 z M 144.62477,555.53089 c -4.54238,-1.61912 -9.99462,-6.59536 -11.67737,-10.65788 -0.65256,-1.57543 -6.68456,-24.48322 -13.40444,-50.90621 C 112.82309,467.54381 106.91438,445.54759 106.4125,445.08631 105.91063,444.62503 85.025,436.72126 60,427.52239 34.975,418.32351 12.59946,409.70584 10.276578,408.372 1.056461,403.07766 -2.2013818,390.13846 3.3154972,380.72462 6.3617829,375.52652 3.9030749,377.22637 55,344.99227 c 21.175,-13.35809 38.598809,-24.35733 38.719576,-24.44276 0.120767,-0.0854 1.13497,-23.08152 2.253785,-51.10242 2.252389,-56.41143 2.301287,-56.75217 9.014289,-62.81697 6.27683,-5.67074 14.28201,-7.05331 21.59873,-3.7303 2.24751,1.02074 21.44382,16.31085 42.65846,33.97803 C 190.45948,254.54503 208.23658,269 208.74952,269 c 0.51293,0 22.49162,-6.10097 48.84154,-13.55772 41.60147,-11.77277 48.66664,-13.50875 53.66412,-13.18581 7.16932,0.46328 13.05565,4.2819 16.41805,10.65081 4.56936,8.65512 4.32638,9.55982 -16.67635,62.09242 l -18.99056,47.49969 28.47294,42.71256 c 19.48361,29.22757 28.82668,44.11739 29.59339,47.16227 1.66699,6.62025 -0.77347,14.21932 -6.11694,19.04682 -7.50375,6.7792 -5.6934,6.71224 -68.59418,2.53713 -38.18595,-2.53464 -45.99678,-2.81764 -46.84436,-1.69725 -0.55944,0.73952 -14.93298,18.98212 -31.9412,40.53911 -27.83176,35.27523 -31.42625,39.44479 -35.94635,41.69725 -5.60173,2.79146 -10.23402,3.09062 -16.00485,1.03361 z"
       id="path3220"
       inkscape:connector-curvature="0" />
    <path
       style="fill:#4f4f4f"
       d="m 425,888.34176 c -15.34131,-1.05285 -31.2535,-2.70264 -43,-4.45828 C 276.04284,868.04709 174.92334,809.22033 105.54768,723.05602 94.24169,709.01401 93,706.68394 93,699.50982 93,687.42245 101.5377,679 113.79046,679 c 3.73425,0 7.03053,1.06057 14.28212,4.59523 31.49453,15.35146 65.50116,26.51202 99.92742,32.79498 38.40247,7.00863 85.40908,7.76228 125.5,2.01212 C 501.37742,697.19258 625.1895,592.10669 675.41071,445.17964 691.78366,397.27898 699.32377,351.20508 699.33337,299 c 0.008,-42.20813 -3.8072,-74.07267 -13.46899,-112.5 C 673.65511,137.94073 649.62397,85.925834 620.95268,46 616.01565,39.125 611.09148,31.7 610.01009,29.5 602.72328,14.675596 616.27626,-2.5623381 632.58825,0.78302029 638.60083,2.0161171 657.46409,12.392997 677.69833,25.598557 705.85381,43.973791 723.33606,58.264778 749.08734,83.956008 788.39636,123.17337 816.4568,162.61742 840.88903,213 929.77896,396.30307 893.2533,615.80079 750.02705,759.02705 672.80769,836.24641 574.82705,881.35706 470,887.95256 c -15.29282,0.96219 -34.26039,1.12624 -45,0.3892 z M 145.72846,555.67315 c -4.62335,-1.43811 -10.23664,-5.82069 -12.11761,-9.46084 C 132.84,544.72054 126.69825,521.675 119.96251,495 113.22676,468.325 107.21716,445.97392 106.60785,445.33094 105.99853,444.68796 84.575,436.45102 59,427.02664 33.425,417.60225 11.109421,408.94391 9.4098235,407.78587 3.4824263,403.74719 1.5,399.53711 1.5,390.98777 c 0,-12.34558 -1.1202777,-11.35601 48.108378,-42.49558 23.469631,-14.8457 43.074151,-27.25314 43.565599,-27.57207 0.491448,-0.31894 1.802867,-23.26894 2.914264,-51 C 97.199638,242.18905 98.578444,217.7 99.152254,215.5 c 0.665272,-2.55067 2.611286,-5.50787 5.370776,-8.16156 7.1785,-6.90326 17.70133,-7.97351 25.54422,-2.59802 1.41198,0.96777 19.33816,15.70958 39.83594,32.75958 20.49778,17.05 37.84203,31.13337 38.54278,31.29637 0.70075,0.163 22.90949,-5.7995 49.35277,-13.25 C 286.42833,247.47986 307.65897,242 310.28143,242 c 9.94903,0 18.48227,8.18737 19.40411,18.61763 0.51042,5.77516 0.17147,6.75674 -18.59692,53.856 l -19.11682,47.97362 27.34683,41.02638 c 15.04076,22.5645 27.94248,42.14078 28.67049,43.50284 5.43726,10.17275 1.01071,23.39393 -9.41838,28.13072 -5.39155,2.44878 -7.25739,2.41329 -61.9598,-1.1787 -38.87013,-2.55238 -47.09919,-2.8523 -48.11771,-1.75371 -0.67575,0.72887 -14.53119,18.23803 -30.78987,38.90923 -16.25868,20.67121 -31.15591,38.98416 -33.10496,40.69545 -5.52921,4.85471 -11.69209,6.12638 -18.86994,3.89369 z"
       id="path3218"
       inkscape:connector-curvature="0" />
    <path
       style="fill:#303030"
       d="M 426.5,888.381 C 323.21219,882.89455 226.45237,841.51277 149.30453,769.83135 c -21.181,-19.68019 -51.417444,-54.07067 -54.929331,-62.4758 -3.168132,-7.58241 -0.659271,-18.4144 5.457099,-23.56098 8.013452,-6.74288 15.246772,-6.31101 32.788892,1.95766 21.64768,10.20388 35.7743,15.58815 57.31515,21.84528 92.5511,26.88402 195.1078,17.37626 282.15438,-26.15778 C 563.93049,635.50849 635.53512,554.12221 672.63482,453.5 710.8586,349.82906 708.50389,227.97028 666.3391,127.68941 652.78945,95.464155 639.66252,72.448533 613.18866,34.5 c -7.18004,-10.292105 -6.71407,-20.421596 1.29367,-28.1225661 5.42,-5.2123559 11.75884,-7.00417272 19.02095,-5.3766999 2.70321,0.605803 5.38333,1.4717707 5.95582,1.9243727 0.5725,0.452602 6.8909,4.0770659 14.0409,8.0543643 C 714.22594,44.759218 768.8272,96.113007 809.28607,157.5 876.05368,258.80443 902.31183,382.11786 882.43036,501 866.04582,598.97219 819.61548,689.44186 750.01582,759.01019 677.43356,831.55977 584.88482,876.39924 487,886.44022 c -14.9399,1.53253 -48.13722,2.59747 -60.5,1.94078 z m -279,-332.28558 c -5.00622,-1.26964 -9.26231,-3.91723 -11.93953,-7.42725 -2.67928,-3.51272 -4.97351,-11.70456 -20.0716,-71.66817 -4.22373,-16.775 -8.19912,-31.03935 -8.83419,-31.69856 -0.63508,-0.65921 -22.503504,-9.09522 -48.59651,-18.7467 C 22.823258,413.5218 9.8702251,408.29818 7.7165871,406.25331 3.3790663,402.13484 1,396.76918 1,391.10494 1,384.79959 2.3135599,381.33883 6.2595661,377.24787 7.9848602,375.4592 28.400383,362.00215 51.627394,347.34332 l 42.23093,-26.65241 0.560619,-7.09545 c 0.30834,-3.9025 1.271581,-26.44546 2.140535,-50.09546 0.868954,-23.65 2.040032,-44.8 2.602397,-47 2.815195,-11.01318 14.311775,-17.36172 25.383375,-14.01697 4.09687,1.23767 11.70737,7.12181 43.95475,33.98406 21.45,17.86798 39.675,32.4963 40.5,32.50738 0.825,0.0111 23.0673,-6.05364 49.42734,-13.47716 C 284.78737,248.07379 308.02349,242 310.06315,242 c 2.11388,0 6.00022,1.19723 9.03831,2.78435 4.33984,2.26715 5.86355,3.79958 8.20309,8.25 2.34899,4.46838 2.79564,6.37796 2.44793,10.46565 -0.29329,3.44799 -6.23243,19.56436 -19.13366,51.92088 l -18.70835,46.92087 28.00203,42.07913 c 15.40112,23.14351 28.47127,43.34591 29.04477,44.89422 2.75753,7.44461 0.0732,17.95711 -5.86004,22.94963 -6.40062,5.38577 -6.70859,5.39523 -61.43249,1.88681 -27.59061,-1.76887 -50.6786,-3.20159 -51.30665,-3.18383 -0.62804,0.0178 -14.31076,16.79479 -30.40603,37.28229 -16.09527,20.4875 -30.8458,38.92271 -32.77895,40.96714 -5.5629,5.8831 -13.14479,8.53394 -19.67311,6.87828 z"
       id="path3216"
       inkscape:connector-curvature="0" />
    <path
       style="fill:#000000"
       d="M 426,887.89916 C 332.7609,884.02952 240.55938,847.28986 165.5,784.09737 137.07612,760.16731 95.192716,713.87465 93.420928,704.4302 90.818392,690.55749 99.727905,679.4966 113.5,679.50263 c 5.26826,0.002 7.40712,0.69403 17.53783,5.67188 108.24778,53.18893 243.98904,49.59926 352.15802,-9.31279 C 640.67946,590.09146 724.66585,408.3666 693.41584,221 685.51167,173.60877 667.86224,123.58632 644.54886,82.5 638.29863,71.48491 626.66288,53.423337 614.1228,35.271172 c -5.64985,-8.178333 -7.08044,-13.771923 -5.10133,-19.946188 2.91498,-9.0939528 10.38967,-14.61069829 19.79615,-14.61069829 5.88605,0 13.33593,3.44326809 33.41995,15.44639829 75.9765,45.407037 137.5802,113.126976 177.69692,195.339316 64.51352,132.20941 65.11848,285.94488 1.64495,418.02738 -23.37146,48.63385 -52.62466,89.66592 -92.00425,129.04998 -37.02245,37.02665 -72.35464,62.77547 -116.42998,84.84991 C 580.81664,869.63523 521.62585,885.54049 469,887.53503 c -7.425,0.28141 -16.2,0.64187 -19.5,0.80103 -3.3,0.15916 -13.875,-0.0374 -23.5,-0.4369 z M 142.16827,553.90894 c -7.82289,-3.97095 -8.40335,-5.53315 -22.18219,-59.69848 L 107.37186,444.6233 65.935928,429.33352 C 11.55948,409.26871 11.394903,409.20317 7.8046868,406.1822 -1.0069193,398.76772 -1.0575721,383.2749 7.7056847,375.9011 9.3503394,374.51722 29.425487,361.56366 52.317125,347.11542 91.227807,322.55664 93.968962,320.63927 94.409372,317.67295 94.66847,315.92783 95.602874,294.025 96.485824,269 c 0.88295,-25.025 1.859461,-47.40263 2.170025,-49.72807 1.900521,-14.23068 17.599641,-21.83179 30.190511,-14.61746 2.7314,1.56504 21.47416,16.68303 41.65058,33.59553 20.38478,17.08715 37.54369,30.75 38.61833,30.75 1.06366,0 23.49527,-6.075 49.84804,-13.5 26.35277,-7.425 49.4042,-13.49012 51.22541,-13.47804 10.8095,0.0717 20.8242,11.51062 19.56429,22.34662 -0.2642,2.27228 -8.70235,24.60642 -18.75146,49.63142 -10.0491,25.025 -18.4733,46.23156 -18.72045,47.1257 -0.26816,0.97015 11.17756,19.06735 28.38478,44.88006 l 28.83412,43.25438 0,7.28379 c 0,6.4828 -0.33091,7.75462 -3.00915,11.56529 -1.79132,2.54873 -4.962,5.28646 -7.83446,6.76468 l -4.82531,2.48319 -51.30855,-3.32659 c -28.2197,-1.82962 -51.94501,-3.08236 -52.72291,-2.78385 -0.7779,0.29851 -15.44373,18.32928 -32.59074,40.06838 -17.147,21.7391 -32.63611,40.56506 -34.42024,41.83547 -4.74802,3.38089 -14.73071,3.74806 -20.62037,0.75844 z"
       id="path3214"
       inkscape:connector-curvature="0" />
  </g>
</svg>
